<svg data-v-0dd9719b="" version="1.0" xmlns="http://www.w3.org/2000/svg" xmlns:xlink="http://www.w3.org/1999/xlink" width="100%" height="100%" viewBox="0 0 340.000000 250.000000" preserveAspectRatio="xMidYMid meet" color-interpolation-filters="sRGB" style="margin: auto;"> <rect data-v-0dd9719b="" x="0" y="0" width="100%" height="100%" fill="#fff" fill-opacity="1" class="background"></rect> <rect data-v-0dd9719b="" x="0" y="0" width="100%" height="100%" fill="url(#watermark)" fill-opacity="1" class="watermarklayer"></rect> <g data-v-0dd9719b="" fill="#0c0c0c" class="icon-text-wrapper icon-svg-group iconsvg" transform="translate(48.959999084472656,95)"><g class="iconsvg-imagesvg" transform="translate(0,0)"><g><rect fill="#0c0c0c" fill-opacity="0" stroke-width="2" x="0" y="0" width="60" height="60" class="image-rect"></rect> <svg x="0" y="0" width="60" height="60" filtersec="colorsb6584935920" class="image-svg-svg primary" style="overflow: visible;"><svg xmlns="http://www.w3.org/2000/svg" viewBox="0.375 0.5680000185966492 99.05699920654297 99.05699920654297"><path fill="#0C0C0C" d="M49.903 99.625C22.545 99.625.375 77.448.375 50.097V3.48A2.912 2.912 0 0 1 3.287.568h46.616c27.359 0 49.529 22.177 49.529 49.529s-22.17 49.528-49.529 49.528zm0-14.566c19.313 0 34.963-15.656 34.963-34.962s-15.65-34.97-34.963-34.97H17.86a2.912 2.912 0 0 0-2.912 2.912v32.05c-.007 19.314 15.65 34.97 34.955 34.97zM20.772 50.097v-29.14H49.91c16.091 0 29.139 13.049 29.139 29.14S65.994 79.228 49.903 79.228s-29.131-13.04-29.131-29.131z"></path></svg></svg> <!----></g></g> <g transform="translate(67,14.0600004196167)"><g data-gra="path-name" fill-rule="" class="tp-name iconsvg-namesvg"><g transform="scale(1)"><g><path d="M2.84-13.81L2.84-31.55 9.51-31.55 9.51-13.81Q9.65-10.45 9.79-9.37L9.79-9.37Q10.12-7.19 11.87-6.41 13.62-5.63 18.02-5.63L18.02-5.63 24.46-5.63 24.46 0 17.31 0Q12.25 0 9.98-0.57L9.98-0.57Q4.78-2.08 3.36-7.19L3.36-7.19Q2.84-9.18 2.84-13.81L2.84-13.81ZM28.24 0L28.24-23.04 34.58-23.04 34.58 0 28.24 0ZM34.58-25.4L28.24-25.4 28.24-31.55 34.58-31.55 34.58-25.4ZM47.31-23.04L60.84-23.04 60.84-18.12 49.62-18.12Q47.68-18.12 47.16-17.93L47.16-17.93Q46.08-17.55 46.08-16.08L46.08-16.08Q46.08-14.85 47.12-14.19L47.12-14.19Q47.68-13.81 50.19-13.81L50.19-13.81 53.93-13.81Q57.52-13.81 59.61-12.3L59.61-12.3Q61.92-10.6 61.92-7.29L61.92-7.29Q61.92-4.78 60.5-2.7L60.5-2.7Q59.46-1.04 57.97-0.52 56.48 0 52.98 0L52.98 0 39.88 0 39.88-4.92 51.19-4.92Q53.27-4.92 54.02-4.97L54.02-4.97Q55.73-5.16 55.73-6.91L55.73-6.91Q55.73-8.33 54.59-8.85L54.59-8.85Q54.02-9.13 51.85-9.13L51.85-9.13 48.02-9.13Q45.75-9.13 44.54-9.41 43.33-9.7 42.29-10.45L42.29-10.45Q41.01-11.35 40.28-12.94 39.55-14.52 39.55-16.32L39.55-16.32Q39.55-19.77 42.06-21.81L42.06-21.81Q43.57-23.04 47.31-23.04L47.31-23.04ZM73.23-23.04L86.76-23.04 86.76-18.12 75.55-18.12Q73.61-18.12 73.09-17.93L73.09-17.93Q72-17.55 72-16.08L72-16.08Q72-14.85 73.04-14.19L73.04-14.19Q73.61-13.81 76.12-13.81L76.12-13.81 79.85-13.81Q83.45-13.81 85.53-12.3L85.53-12.3Q87.85-10.6 87.85-7.29L87.85-7.29Q87.85-4.78 86.43-2.7L86.43-2.7Q85.39-1.04 83.9-0.52 82.41 0 78.91 0L78.91 0 65.8 0 65.8-4.92 77.11-4.92Q79.19-4.92 79.95-4.97L79.95-4.97Q81.65-5.16 81.65-6.91L81.65-6.91Q81.65-8.33 80.52-8.85L80.52-8.85Q79.95-9.13 77.77-9.13L77.77-9.13 73.94-9.13Q71.67-9.13 70.46-9.41 69.26-9.7 68.22-10.45L68.22-10.45Q66.94-11.35 66.2-12.94 65.47-14.52 65.47-16.32L65.47-16.32Q65.47-19.77 67.98-21.81L67.98-21.81Q69.49-23.04 73.23-23.04L73.23-23.04ZM103.32-23.37L103.32-23.37Q109.7-23.37 112.73-19.68L112.73-19.68Q115.52-16.32 115.52-11.21L115.52-11.21Q115.52-5.82 112.02-2.6L112.02-2.6Q108.8 0.33 103.22 0.33L103.22 0.33Q97.45 0.33 94.19-2.98L94.19-2.98Q91.16-5.96 91.16-11.68L91.16-11.68Q91.16-16.51 94.04-19.73L94.04-19.73Q97.26-23.32 103.32-23.37ZM103.36-18.54L103.36-18.54Q97.64-18.54 97.64-11.45L97.64-11.45Q97.64-8.56 98.59-7.05L98.59-7.05Q100.15-4.49 103.41-4.49L103.41-4.49Q109.04-4.49 109.04-11.54L109.04-11.54Q109.04-18.45 103.36-18.54ZM120.2 0L120.2-23.04 143.48-23.04Q146.65-23.04 148.3-22.57 149.96-22.09 151.1-20.91L151.1-20.91Q153.18-18.64 153.18-14.66L153.18-14.66 153.18 0 146.84 0 146.84-13.67Q146.84-15.33 146.7-15.99 146.55-16.65 146.03-17.17L146.03-17.17Q145.04-18.12 143.05-18.12L143.05-18.12 139.7-18.12 139.7 0 133.36 0 133.36-18.12 126.54-18.12 126.54 0 120.2 0ZM164.58-14L177.92-14 177.92-9.08 164.58-9.08Q164.77-6.81 166.04-5.87 167.32-4.92 170.21-4.92L170.21-4.92 177.92-4.92 177.92 0 169.5 0Q166.75 0 165.03-0.5 163.3-0.99 161.79-2.13L161.79-2.13Q157.58-5.39 157.58-11.83L157.58-11.83Q157.58-15.99 159.8-19.11L159.8-19.11Q161.31-21.24 163.44-22.14 165.57-23.04 169.02-23.04L169.02-23.04 177.92-23.04 177.92-18.12 169.5-18.12Q166.9-18.12 165.86-17.24 164.81-16.37 164.58-14L164.58-14Z" transform="translate(-2.8400001525878906, 31.549999237060547)"></path></g> <!----> <!----> <!----> <!----> <!----> <!----> <!----></g></g> <!----></g></g><defs v-gra="od"></defs></svg>